HIERARCHY
ROOT Hips
{
	OFFSET 0.000000 0.000000 0.000000
	CHANNELS 6 Xposition Yposition Zposition Zrotation Yrotation Xrotation 
	JOINT LHipJoint
	{
		OFFSET 0.000000 0.000000 0.000000
		CHANNELS 3 Zrotation Yrotation Xrotation
		JOINT LeftUpLeg
		{
			OFFSET 1.363060 -1.794630 0.839290
			CHANNELS 3 Zrotation Yrotation Xrotation
			JOINT LeftLeg
			{
				OFFSET 2.448110 -6.726130 0.000000
				CHANNELS 3 Zrotation Yrotation Xrotation
				JOINT LeftFoot
				{
					OFFSET 2.562200 -7.039590 0.000000
					CHANNELS 3 Zrotation Yrotation Xrotation
					JOINT LeftToeBase
					{
						OFFSET 0.157640 -0.433110 2.322550
						CHANNELS 3 Zrotation Yrotation Xrotation
						End Site
						{
							OFFSET 0.000000 0.000000 0.000000
						}
					}
				}
			}
		}
	}
	JOINT RHipJoint
	{
		OFFSET 0.000000 0.000000 0.000000
		CHANNELS 3 Zrotation Yrotation Xrotation
		JOINT RightUpLeg
		{
			OFFSET -1.305520 -1.794630 0.839290
			CHANNELS 3 Zrotation Yrotation Xrotation
			JOINT RightLeg
			{
				OFFSET -2.542530 -6.985550 0.000000
				CHANNELS 3 Zrotation Yrotation Xrotation
				JOINT RightFoot
				{
					OFFSET -2.568260 -7.056230 0.000000
					CHANNELS 3 Zrotation Yrotation Xrotation
					JOINT RightToeBase
					{
						OFFSET -0.164730 -0.452590 2.363150
						CHANNELS 3 Zrotation Yrotation Xrotation
						End Site
						{
							OFFSET 0.000000 0.000000 0.000000
						}
					}
				}
			}
		}
	}
	JOINT LowerBack
	{
		OFFSET 0.000000 0.000000 0.000000
		CHANNELS 3 Zrotation Yrotation Xrotation
		JOINT Spine
		{
			OFFSET 0.028270 2.035590 -0.193380
			CHANNELS 3 Zrotation Yrotation Xrotation
			JOINT Spine1
			{
				OFFSET 0.056720 2.048850 -0.042750
				CHANNELS 3 Zrotation Yrotation Xrotation
				JOINT Neck
				{
					OFFSET 0.000000 0.000000 0.000000
					CHANNELS 3 Zrotation Yrotation Xrotation
					JOINT Neck1
					{
						OFFSET -0.054170 1.746240 0.172020
						CHANNELS 3 Zrotation Yrotation Xrotation
						JOINT Head
						{
							OFFSET 0.104070 1.761360 -0.123970
							CHANNELS 3 Zrotation Yrotation Xrotation
							End Site
							{
								OFFSET 0.000000 0.000000 0.000000
							}
						}
					}
				}
				JOINT LeftShoulder
				{
					OFFSET 0.000000 0.000000 0.000000
					CHANNELS 3 Zrotation Yrotation Xrotation
					JOINT LeftArm
					{
						OFFSET 3.362410 1.200890 -0.311210
						CHANNELS 3 Zrotation Yrotation Xrotation
						JOINT LeftForeArm
						{
							OFFSET 4.983000 -0.000000 -0.000000
							CHANNELS 3 Zrotation Yrotation Xrotation
							JOINT LeftHand
							{
								OFFSET 3.483560 -0.000000 -0.000000
								CHANNELS 3 Zrotation Yrotation Xrotation
								JOINT LeftFingerBase
								{
									OFFSET 0.000000 0.000000 0.000000
									CHANNELS 3 Zrotation Yrotation Xrotation
									JOINT LeftHandIndex1
									{
										OFFSET 0.715260 -0.000000 -0.000000
										CHANNELS 3 Zrotation Yrotation Xrotation
										End Site
										{
											OFFSET 0.000000 0.000000 0.000000
										}
									}
								}
								JOINT LThumb
								{
									OFFSET 0.000000 0.000000 0.000000
									CHANNELS 3 Zrotation Yrotation Xrotation
									End Site
									{
										OFFSET 0.000000 0.000000 0.000000
									}
								}
							}
						}
					}
				}
				JOINT RightShoulder
				{
					OFFSET 0.000000 0.000000 0.000000
					CHANNELS 3 Zrotation Yrotation Xrotation
					JOINT RightArm
					{
						OFFSET -3.136600 1.374050 -0.404650
						CHANNELS 3 Zrotation Yrotation Xrotation
						JOINT RightForeArm
						{
							OFFSET -5.241900 -0.000000 -0.000000
							CHANNELS 3 Zrotation Yrotation Xrotation
							JOINT RightHand
							{
								OFFSET -3.444170 -0.000000 -0.000000
								CHANNELS 3 Zrotation Yrotation Xrotation
								JOINT RightFingerBase
								{
									OFFSET 0.000000 0.000000 0.000000
									CHANNELS 3 Zrotation Yrotation Xrotation
									JOINT RightHandIndex1
									{
										OFFSET -0.622530 -0.000000 -0.000000
										CHANNELS 3 Zrotation Yrotation Xrotation
										End Site
										{
											OFFSET 0.000000 0.000000 0.000000
										}
									}
								}
								JOINT RThumb
								{
									OFFSET 0.000000 0.000000 0.000000
									CHANNELS 3 Zrotation Yrotation Xrotation
									End Site
									{
										OFFSET 0.000000 0.000000 0.000000
									}
								}
							}
						}
					}
				}
			}
		}
	}
}
MOTION
Frames: 6
Frame Time: 0.008333
3.579386 17.615739 4.910035 -179.718772 7.255453 172.308047 7.006172 1.076690 -0.422576 -31.656754 -9.763696 8.256113 -1.832137 6.326916 18.546998 -7.418714 31.721143 -26.335464 0.010400 -0.659700 -1.812900 -8.220716 -0.323288 -2.836918 31.268201 3.374427 1.328595 -3.900660 -13.850487 40.029912 1.037297 -10.602038 -19.941289 -1.187100 6.914300 -19.461800 -0.431147 3.606114 4.758345 1.140497 5.763070 2.696792 -9.658303 2.899229 3.712025 12.514891 6.413945 4.812244 4.278343 7.329275 4.401706 -5.552500 3.329900 -0.840800 7.894363 2.987812 -0.071401 -90.781199 -4.104382 30.001469 11.999825 -13.936431 -2.194672 -1.914364 -2.633763 5.173747 16.004895 6.629652 3.004400 -7.125000 0.000000 0.000000 -8.088600 39.778700 1.048900 -10.711829 -5.700394 0.886724 104.693989 -8.380833 28.944517 -14.895810 24.272790 -5.656074 0.622084 0.939855 -0.209106 -8.681127 10.253357 -1.515900 7.125000 0.000000 0.000000 12.592400 -20.663100 7.519700 
3.629824 17.608861 4.924937 -179.573853 6.142085 171.575011 7.000746 1.153907 -0.396477 -31.370328 -9.623374 8.985438 -1.789751 6.255149 18.550344 -7.220603 30.872938 -25.486701 0.005600 -0.483700 -1.329200 -8.251576 -0.385795 -2.889445 31.069988 1.925433 0.454931 -4.327805 -14.326028 41.713605 1.195854 -10.668683 -18.367536 -1.132400 6.758500 -19.001800 -0.969775 3.244752 6.158229 1.181389 5.258276 2.685722 -9.348692 2.634479 3.007729 12.392284 6.460973 4.922135 4.553217 7.316349 4.388910 -5.422700 3.328000 -0.825500 7.975717 2.876508 -0.087179 -90.877337 -4.135522 29.653993 12.232682 -14.301356 -2.302968 -1.904735 -2.676664 4.538745 16.162704 6.612058 3.038700 -7.125000 0.000000 0.000000 -7.937200 39.800600 1.024600 -10.835908 -5.600481 0.882789 104.712128 -8.561350 30.955030 -15.253901 24.881546 -6.013007 0.594309 0.726244 -3.745354 -6.702119 12.382319 -1.494200 7.125000 0.000000 0.000000 13.813100 -18.392700 9.014600 
3.680148 17.584674 4.941559 -179.417074 4.970275 170.880490 6.986985 1.243043 -0.380267 -30.966895 -8.934450 9.520413 -1.767578 6.111952 18.340522 -7.059563 30.070354 -24.503355 0.003200 -0.362800 -0.997000 -8.279997 -0.450015 -2.931757 30.848834 0.483108 -0.477002 -4.763934 -14.785944 43.380687 1.448838 -11.151584 -16.688868 -1.340300 7.330200 -20.697500 -1.475799 2.816652 7.502991 1.219913 4.654661 2.674967 -9.018913 2.322383 2.338713 12.323372 6.624926 5.070712 4.561311 7.518778 4.367869 -5.419800 3.434700 -0.780600 8.063957 2.780292 -0.107974 -90.999647 -4.080474 29.367505 12.521930 -14.764567 -2.434998 -1.910781 -2.792618 3.485824 16.528008 6.826967 3.212800 -7.125000 0.000000 0.000000 -7.625300 40.148400 0.918100 -10.922684 -5.488693 0.878739 104.774796 -8.583975 32.588112 -15.570838 25.259311 -6.224226 0.626769 0.842837 -6.768764 -6.904464 12.306589 -1.532200 7.125000 0.000000 0.000000 13.627000 -18.533400 8.842100 
3.722562 17.556474 4.942362 -178.822817 4.006336 170.915541 6.934313 1.299429 -0.375204 -29.975636 -8.094101 9.039657 -1.737806 6.088493 18.326296 -7.072573 29.867899 -23.995962 0.014800 -0.785200 -2.157900 -8.315224 -0.488944 -2.926560 31.016668 -0.661763 -2.008384 -5.106988 -15.210093 44.715215 1.682182 -11.659739 -15.084330 -1.639300 8.070500 -22.928300 -1.298064 2.461406 7.911290 1.291006 4.157918 2.605343 -8.843848 2.053558 2.073353 11.929723 6.648785 4.750213 5.037221 7.441180 4.704672 -5.111300 3.455000 -0.583800 8.136470 2.757354 -0.160823 -91.187422 -3.989865 29.397514 12.830826 -15.285496 -2.593938 -1.920233 -2.926538 2.242951 16.976860 7.015875 3.406700 -7.125000 0.000000 0.000000 -7.222000 40.492100 0.807500 -11.020755 -5.421318 0.847326 104.820289 -8.581423 33.927784 -15.871363 25.567657 -6.353171 0.710397 1.120638 -9.612713 -8.525863 11.420180 -1.715000 7.125000 0.000000 0.000000 12.449500 -19.562300 7.745900 
3.759702 17.545469 4.931586 -178.581223 3.188215 170.728837 6.923993 1.361304 -0.390215 -29.527446 -7.577733 8.945682 -1.665635 6.076754 18.205530 -7.883590 31.396495 -21.859857 0.231600 -3.097300 -8.549600 -8.323503 -0.530400 -2.937603 30.739235 -1.965381 -3.151440 -5.377389 -15.487451 45.710257 1.921964 -12.491600 -14.504848 -2.131700 9.135200 -26.219000 -1.353522 2.189271 8.477555 1.319389 3.781083 2.536259 -8.553040 1.856749 1.862340 10.346697 6.882720 3.872056 6.764196 7.429162 5.617322 -4.394100 3.599600 -0.149700 8.112378 2.813741 -0.262926 -91.421878 -3.814628 29.771202 13.142666 -15.810170 -2.775744 -1.904584 -3.057147 1.016976 17.305567 7.168059 3.564300 -7.125000 0.000000 0.000000 -6.932900 40.782100 0.725100 -11.218713 -5.352711 0.785046 104.868787 -8.692674 35.432632 -16.254512 26.010075 -6.530388 0.816108 1.382095 -13.230790 -10.220462 11.044164 -1.961500 7.125000 0.000000 0.000000 11.127800 -20.042100 6.767700 
3.810255 17.552003 4.929867 -178.360313 2.090181 170.943858 6.886048 1.395925 -0.445357 -28.911470 -7.316618 8.175682 -1.447986 6.253532 18.206606 -9.711392 35.095482 -16.016477 1.780400 -8.392800 -23.913700 -8.341708 -0.579731 -2.916940 30.610426 -3.274779 -4.559629 -5.485588 -15.643746 46.109473 2.577441 -15.153533 -14.633670 -3.350400 11.241800 -33.099800 -1.779325 1.881221 8.777433 1.418107 3.275477 2.428410 -7.829287 1.558603 1.384714 8.677176 7.171674 4.278928 7.751974 7.656877 5.290551 -3.453400 3.659700 -0.540400 8.107666 2.743447 -0.281659 -91.854564 -3.552144 29.968643 13.422912 -16.281259 -2.953637 -1.870679 -3.151383 0.101252 17.447899 7.213115 3.634800 -7.125000 0.000000 0.000000 -6.811500 40.913300 0.690100 -11.487253 -5.360179 0.767428 104.762440 -9.073538 37.879464 -16.890015 26.721056 -6.830769 0.950266 1.728827 -18.851184 -12.637298 10.949792 -2.384500 7.125000 0.000000 0.000000 9.175300 -20.211000 5.510700 
